<svg version="1.1" id="Layer_1" xmlns="http://www.w3.org/2000/svg" x="0" y="0" viewBox="-455 457 48 48" xml:space="preserve"><style>.st1{fill:#b9821f}</style><path d="M-455 457h48v48h-48v-48z" fill="none"/><path class="st1" d="M-431 465c3.9 0 10 2.8 10 10.3 0 4.3-3.4 9.3-10 14.6-6.6-5.3-10-10.3-10-14.6 0-7.5 6.1-10.3 10-10.3m0-4c-6.5 0-14 4.9-14 14.3 0 6.2 4.7 12.8 14 19.7 9.3-6.9 14-13.5 14-19.7 0-9.4-7.5-14.3-14-14.3z"/><path class="st1" d="M-431 471c-2.2 0-4 1.8-4 4s1.8 4 4 4 4-1.8 4-4-1.8-4-4-4zm-20 26h40v4h-40z"/></svg>