<svg version="1.1" id="Layer_1" xmlns="http://www.w3.org/2000/svg" xmlns:xlink="http://www.w3.org/1999/xlink" x="0" y="0" viewBox="0 0 371 80" xml:space="preserve"><style>.st2{fill:#fff}</style><g id="XMLID_2_"><g id="XMLID_37_"><defs><path id="XMLID_38_" d="M-.5 0h76.4v80.6H-.5z"/></defs><clipPath id="XMLID_40_"><use xlink:href="#XMLID_38_" overflow="visible"/></clipPath><linearGradient id="XMLID_41_" gradientUnits="userSpaceOnUse" x1="-5480.906" y1="4102.611" x2="-5480.829" y2="4102.611" gradientTransform="translate(5374476.5 -4022905.5) scale(980.5818)"><stop offset="0" stop-color="#bb8427"/><stop offset="1" stop-color="#e5c57c"/></linearGradient><path id="XMLID_39_" clip-path="url(#XMLID_40_)" fill="url(#XMLID_41_)" d="M-.5 0h76.4v80.6H-.5z"/></g><path id="XMLID_36_" fill="#333" d="M75.7 0H374v80.6H75.7z"/><path id="XMLID_35_" class="st2" d="M168.5 23.1h22.3v4.7h-16.9v12h13.7v4.7h-13.7v12.3h17.8v4.7h-23.2z"/><path id="XMLID_34_" class="st2" d="M194.8 23.1h22.3v4.7h-16.9v12h13.7v4.7h-13.7v12.3H218v4.7h-23.2z"/><path id="XMLID_33_" class="st2" d="M321.2 23.1h5.4v38.3h-5.4z"/><path id="XMLID_32_" class="st2" d="M333 53s4.1 4.1 9.8 4.1c3.6 0 6.6-2 6.6-5.7 0-8.3-18.6-6.5-18.6-18.3 0-6 5.2-10.7 12.4-10.7 7.1 0 10.9 3.9 10.9 3.9l-2.4 4.5s-3.5-3.3-8.4-3.3c-4.1 0-7 2.6-7 5.6 0 7.9 18.6 5.8 18.6 18.2 0 5.9-4.6 10.8-12.2 10.8-8.1 0-12.7-5-12.7-5l3-4.1z"/><path id="XMLID_29_" class="st2" d="M267.9 41.4c2.2-.7 3.9-1.7 5.1-3.1 1.2-1.4 1.7-3.2 1.7-5.2 0-3.3-1.1-5.7-3.4-7.5-2.2-1.7-5.5-2.6-9.7-2.6h-18.8v5.1h2.7v28.7h-2.7v5h18.6c5 0 8.7-.9 11.1-2.7 2.4-1.8 3.6-4.5 3.6-8.2 0-2.4-.7-4.4-2.1-6-1.3-1.7-3.3-2.9-6.1-3.5m.1 13.9c-1.3 1-3.5 1.5-6.6 1.5h-9.7V27.9h9.4c2.5 0 4.3.5 5.5 1.4 1.2 1 1.8 2.4 1.8 4.4 0 1.9-.6 3.4-1.9 4.4-1.2 1.1-3 1.6-5.3 1.6h-2.5l-2 4.4h4.9c2.8 0 4.9.5 6.3 1.5 1.4 1 2 2.5 2 4.6 0 2.5-.6 4.1-1.9 5.1"/><path id="XMLID_26_" class="st2" d="M298.3 22.2h-19.9v5.4h5.4c-1.3 1.3-2.4 2.7-3.2 4.3-1.7 3.1-2.5 6.6-2.5 10.5 0 3.9.8 7.3 2.5 10.4 1.6 3.1 4 5.4 6.9 7.1 3 1.7 6.4 2.5 10.1 2.5 3.8 0 7.2-.9 10.1-2.6 3-1.7 5.3-4.1 7-7.2 1.7-3.1 2.5-6.6 2.5-10.5 0-5.9-1.8-10.8-5.4-14.5-3.6-3.4-8.1-5.2-13.5-5.4m8.9 30.8c-2.5 2.7-5.7 4.1-9.6 4.1-3.9 0-7.1-1.4-9.7-4.1-2.5-2.8-3.8-6.3-3.8-10.6s1.2-7.9 3.7-10.6c2.5-2.7 5.7-4.1 9.6-4.1 3.9 0 7.1 1.4 9.7 4.2 2.5 2.8 3.8 6.3 3.8 10.6.1 4.3-1.2 7.8-3.7 10.5"/><path id="XMLID_23_" class="st2" d="M115.6 22.2h-20v5.4h5.4c-1.3 1.3-2.4 2.7-3.2 4.3-1.7 3.1-2.5 6.6-2.5 10.5 0 3.9.8 7.3 2.5 10.4 1.6 3.1 4 5.4 6.9 7.1 3 1.7 6.4 2.5 10.2 2.5 3.8 0 7.2-.9 10.1-2.6 3-1.7 5.3-4.1 7-7.2 1.7-3.1 2.5-6.6 2.5-10.5 0-5.9-1.8-10.8-5.5-14.5-3.5-3.4-8-5.2-13.4-5.4m8.9 30.8c-2.5 2.7-5.7 4.1-9.6 4.1-3.9 0-7.1-1.4-9.7-4.1-2.5-2.8-3.8-6.3-3.8-10.6s1.2-7.9 3.7-10.6c2.5-2.7 5.7-4.1 9.6-4.1 3.9 0 7.1 1.4 9.7 4.2 2.5 2.8 3.8 6.3 3.8 10.6s-1.2 7.8-3.7 10.5"/><path id="XMLID_22_" class="st2" d="M145.5 46.1h3.1l4.9 10.3c.5 1.4 2.2 4.3 5.3 5.2.8.2 1.5.3 2.3.3 1.4 0 2.8-.4 4.3-1.1l-2.7-5.7c-1.3.6-1.8.5-2.2.4-.5-.1-1-.9-1.1-1.3V54l-4.5-9.5c4.2-1.4 6.9-5.5 6.9-10.4 0-5.1-2.6-9-6.5-10.5-1.5-.5-3.2-.9-7.2-.9h-11.8v38.6h5.4V27.5h6.2c3 0 4.3.3 5.3.9 2 1.1 3.1 3.1 3.1 6 0 4.3-2.6 7-6.8 7h-2.9l-1.1 4.7z"/><path id="XMLID_21_" class="st2" d="M179.8 18.9h5.7l-4.1 5.4h-4.8z"/><path id="XMLID_18_" class="st2" d="M222.2 61.5v-5.4c0-5 3-8.4 8.3-8.4 5.3 0 8.3 3.3 8.3 8.3v5.4l-16.6.1zm15.2-5.2c0-4.1-2.4-6.8-6.9-6.8-4.4 0-6.8 2.8-6.8 6.8v3.6h13.7v-3.6z"/><path id="XMLID_17_" class="st2" d="M222.2 45.2v-9.3h1.4l.1 7.7h6v-6.3h1.5v6.3h6.1v-8.2h1.5v9.8z"/><path id="XMLID_16_" class="st2" d="M235.7 32.3s1.8-1.7 1.8-4.4c0-1.8-1.1-3.3-2.9-3.3-4.2 0-3.1 8.3-8.3 8.3-2.4 0-4.5-2.1-4.5-5.2 0-2.9 1.6-4.4 1.6-4.4l1.4.8s-1.4 1.5-1.4 3.6 1.4 3.5 2.9 3.5c3.9 0 2.8-8.3 8.3-8.3 2.5 0 4.5 1.9 4.5 5 0 3.4-2.1 5.3-2.1 5.3l-1.3-.9z"/><path id="XMLID_15_" class="st2" d="M-.5 62.5L-.6 64c.2-.2.4-.4.5-.6.4-.4.2-.8-.4-.9"/><path id="XMLID_14_" class="st2" d="M1.6 75.2c.3-.5.7-.8 1.2-1 .7-.3.8-.6.3-1.2l-.3-.3c-.9-1.2-.6-1.9.8-2.4.2-.1.3-.1.5-.2.4-.2.7-.7.3-1.1-.6-.7-.5-1.3 0-1.9.3-.3 0-.5-.3-.7-.3-.2-.6-.2-1 0-.3.2-.6.3-.9.4-.8.2-1 0-.8-.8.1-.6 0-.8-.6-.8h-1c-.2 0-.3-.1-.4-.2v10.7c.8.5 1.7.3 2.2-.5"/><path id="XMLID_4_" class="st2" d="M75.8 19.7v-2c-.3-.1-.6-.1-.9 0-.2 0-.3.1-.5.1-.8.1-1.1-.1-1.2-.9 0-.6-.1-1.2.5-1.6.4-.3.5-.7.7-1.1.1-.2.1-.4-.1-.6-.2-.1-.3-.1-.5 0-.4.3-.9.6-1.3.7-1.1.5-2-.2-1.8-1.4 0-.1.1-.2.1-.4.1-.9-.2-1.2-1.1-.9-.4.1-.7.3-1 .5-.3.1-.5.2-.8 0-.9-.6-1-.6-1.7.1-.7.6-1.5.7-2.4.9-.4.1-.8-.3-.5-.6.6-.7.9-1.8 2-2.2 1.1-.3 1.9-1.1 2.5-2.1.2 0 .4-.2.2-.5s-.5-.3-.7-.2c-1.3.5-2.8.4-4.1 1-.4.2-.9.4-1.4.3-.4 0-.5-.2-.3-.6.2-.4.6-.6 1-.8.6-.4 1.2-.7 1.6-1.2.1-.1.2-.3.1-.5s-.3-.3-.4-.2c-.3.1-.7.2-1 .3-.6.2-1.1.4-1.7.4-.5 0-.9 0-1-.5-.3-.7-.7-.6-1.2-.3-.5.2-.9.5-1.5.6-.6.1-1-.4-.7-.9.2-.5.6-.8 1.2-.9 1.3-.2 2.5-.8 3.9-1.2 1.7-.4 2.6-1.6 3.8-2.7l.2-.2.1-.1H64c-.6.2-1.1.3-1.3 0H26.9c0 .2.2.4.4.5l.2.2c.3.3.4.7.2 1.2-.2.4-.6.4-1 .4-.4-.1-.9-.1-1.1.4-.3.5-.6.5-1.2.3-.9-.3-1.2-.1-1.1.9 0 .7-.3.7-.8.7-.5-.1-.9-.2-1.4-.2-.4 0-.8 0-1 .4-.1.4.2.6.4.9.5.5 1 1 1.6 1.3.4.2.8.5 1.2.7.5.4.8.9.9 1.5 0 .3-.9.2-1.6-.2-.2-.1-.4-.3-.7-.4-.3-.1-.5-.3-.8-.3-.6-.1-.8.1-.7.7.1 1-.1 1.2-1 1.2-.4 0-.8-.2-1.2-.3-.7-.1-1.1.3-.8 1 .2.5.5.9.9 1.2 1.6 1.1 3.2 2.2 5.3 2.2 1.7 0 3.4.8 5.2.3.2-.1.4.1.5.3.4.6.1 1.3-.7 1.4-.7.1-.9.1-.5.8.3.6.1.8-.5.8-.8-.1-1.5-.3-2.3-.4-.6-.1-1.2-.2-1.8-.6-.3-.2-.8-.4-1.1-.6-.4-.2-.6-.1-.8.3-.1.4-.1.8-.1 1.1-.1 1.5-.2 1.6-1.5.9-.6-.3-1.1-.6-1.7-.9-.4-.2-.9-.3-1.4-.1-.6.2-.8.7-.4 1.2.1.1.3.2.4.3.5.5.7 1.6.3 2-.4.5-1.3.7-2 .3-.3-.2-.6-.5-.9-.7-.9-.4-1.9-1.1-2.8.1-.2.3-.6.3-.9.3-.6.1-.7.4-.2.8.5.5 1 .8 1.6 1 .7.3 1.4.6 1.9 1.2.3.4.5.8.5 1.3 0 .4-.5.4-.8.5-.4.2-.5.5-.1.8.2.2.4.3.7.3 1.1.4 2.2.7 3.3 1.1.5.2.9.4 1.4.6.3.2.5.4.3.7-.4.6-.1.9.4 1.2 2.2 1.2 4.6 1.6 7 1.5.6 0 1.2-.1 1.6-.6.5-.5 1-.5 1.6-.2 1.5.8 3 .8 4.6.6.4 0 .8 0 .9-.5.1-.5-.2-.9-.6-1.1-.3-.1-.7-.2-1-.3-.3-.2-.7-.4-.6-.9.1-.4.6-.3.9-.3h.3c.8.1 1.5 0 2.2-.6.7-.7 1.4-.7 1.9-.1.8.7 1.5 1.5 2 2.5.4.7.6 1.5.4 2.3-.3 1.4-.4 2.8-.5 4.2 0 .4-.1.8-.2 1.1-.2.7-.5.8-1.1.7-.3-.1-.6-.2-.8-.3-.4-.2-.5-.5-.3-.9.1-.2.2-.3.4-.5.3-.4.3-.8-.3-1-.6-.2-.7-.6-.6-1.2.1-.2.1-.3.1-.5.2-.6-.1-.7-.6-.6-.2 0-.4 0-.6.1-1.2.4-2.3.3-3.3-.3-.5-.3-.9-.1-1.3.3-1 1-1.3 1-2.4.3-.7-.5-1.5-.4-2.2-.5-.5-.1-.5.3-.3.7.4.8.2 1.1-.6 1-.7 0-1.4-.2-2-.3-.4 0-.8-.1-1 .3-.3.6-.7.7-1.2.7-.2 0-.4 0-.4.2-.1.3.2.4.4.4 1.1.3 2.1 1 3.3 1 .2 0 .5.1.8.1.6.2.7.4.4 1-.5.9-.3 1.1.7 1.2.8.1 1.5.2 2.3.2.6 0 1.1.2 1.2.9.1.5.5.5.9.4.2-.1.5-.2.7-.3.7-.4 1.4-.4 2.1 0 .3.2.7.3 1.1.3.6 0 1 0 1.1-.8.2-.9.7-1.2 1.6-1.2.7 0 1.3.4 1.6 1.1.1.2.1.3.2.5l.6 4.8v.1c0 .6-.2.8-.8.6-.5-.1-.9-.4-1.4-.6-.7-.3-1.4-.6-2.2-.7-1.4-.2-2.9-.2-4.3-.8-.1 0-.2-.1-.3 0l.2.2c1.2.4 2.2 1.3 3.5 1.2 1.3 0 2.3.5 3.3 1.2.3.2.8.4 1.1.6.6.4 1.2.9 1.3 1.6.3 1.4.8 2.8 1.2 4.2.3 1.2.5 2.4.5 3.7 0 .8-.3 1-1 .8-.2 0-.5-.1-.7-.2-.2-.1-.4-.1-.6-.2-.4-.1-.7 0-.8.4-.2.5.1.6.4.8.4.1.8.2 1.2.4 1.5.6 2.4 1.6 2.6 3.3.2 1.8.1 3.7.1 5.5-.1 3.1-.4 6.2-1.1 9.3-.2.7-.5 1.3-1.2 1.5-1 .3-2.1.1-3.1.3-.5.1-.6-.7-1-.9-.1 0-.2-.1-.2-.1-.9-.2-1.9-.4-2.7.3-.6.5-1.1.4-1.6 0s-.9-.6-1.2.2c-.2.4-.4.2-.7 0-.8-.9-2-.5-2.4-.3-.5.2-.8.5-1.2.1-.5-.5-1.1-.4-1.7-.2-.4.2-.9.3-1.2.7-.3.3-.6.4-.9.2-.7-.5-1.3-.4-1.9 0-.7.4-1.1-.8-1.9-.4-.1.1-.3.1-.4.1-.8-.1-1.6-.1-2.1-.7-.1-.1-.4-.4-.1-.5.7-.3.3-.6 0-.9-.4-.5-1.1-1-.9-1.6.2-.6 0-.9-.3-1.2-.2-.3-.3-.6-.3-1 0-.7-.4-1.4-.9-1.7-.4-.2-.3.8-.7 1.1-.1.1-.1.3-.2.4-.5.5-1 1-.6 1.9.1.1-.1.3-.2.5-.5.9-.3 2.1-1.4 2.7-.1 0-.1.2-.1.4 0 .3 0 .7-.4.6-.4 0-.5-.3-.5-.6-.1-.4-.1-.8-.1-1.1.1-1.2.1-2.5.3-3.7.5-3.3.3-6.6.2-9.9 0-.7.1-1.3.7-1.8.7-.6 1.3-1.2 2.1-1.6.2-.1.3-.2.4-.3.1-.1.2-.3.1-.4-.1-.1-.2-.1-.3-.1-.8.3-1.5.6-2.2 1-.3.2-.7.3-.8-.1-1.2-.6-1.5-1.6-1.2-2.3.5-1.5 1.9-2.4 3.3-3 .3-.1.6-.1.8.1.3.3-.1.5-.2.8-.2.3-.4.7-.2 1.1.3.4.7.2 1 .1.2 0 .3-.1.5-.2.4-.2.8-.2 1.1.1.5.5.9.3 1.4.1.7-.4 1.4-.5 2.2-.1.3.2.6.2.9-.1.8-.5 1.6-.9 2.4-1.3.3-.1.5-.3.8-.5.3-.2.3-.4-.1-.6-.6-.2-.9-.8-.6-1.5v-.1c0-.8.4-1.3 1-1.7.2-.2.4-.4.2-.7-.2-.3-.5-.3-.8-.1-.6.3-1.1.6-1.7.9-.7.4-1.3.6-2 0-.4-.4-1.1-.7-1.7-.6-1 .3-1.7-.2-2.5-.5-.5-.2-1.2-.3-1.1-1 .1-.6.9-.4 1.3-.4 1.4.2 2.9.2 4.3 0 .8-.1 1.4-.2 1.8-.8.1-.2.4-.2.4-.5-.1-.3-.3-.4-.6-.4-.3-.1-.6-.1-.9-.1-.4-.1-.6-.3-.6-.7 0-.6.1-1 .7-1.3.5-.2 1-.5 1.5-.8.4-.2.3-.5 0-.7-.3-.2-.6-.1-.9-.2-.7 0-1.4-.1-2.2-.1-1.3-.1-1.3-.1-.7-1.2 0-.1.1-.1.1-.2.2-.5.1-.7-.4-.8-.4-.1-.9.1-1.2-.3-.5-.8-1.2-.6-1.9-.5-.5.1-1.1.3-1.6.2-.3 0-.6-.1-.7-.5-.1-.3.1-.5.3-.8.4-.3.8-.4 1.2-.7.5-.3.5-.5.1-.8-.6-.4-1.2-.7-2-.8-.4 0-1.1.1-1.3-.3-.2-.5.5-.6.8-.9.3-.3.3-.6-.1-.8-.1.2-.4.2-.6.2-.6.1-1 0-1.3-.5-.2-.4-.7-.5-1.1-.4-.5.2-.8 0-1.1-.5-.6-1.1-2.6-1.1-3.3.1-.3.6-.6.9-1.3.6-.3-.1-.8-.1-.7.3.2.8-.6 1.2-.7 1.8-.1.3-.3.2-.5.2-.6-.1-1.2-.1-1.7-.3-.1-.1-.3-.1-.4 0v5.6c.1.1.3.2.3.4s-.1.2-.3.3V47c.5 0 .9-.2 1.2-.6.4-.4.8-.6 1.3-.5.5.2.7.7.6 1.1-.1.5 0 .8.5 1 .5.1.7-.1 1-.5.5-.9.6-.9 1.7-.6.4.1.7.1 1.1 0 .4-.1.7 0 .8.4.2.8.4 1.6.2 2.4-.1.8-.7 1.1-1.4.7-.6-.3-1.2-.6-1.9-.7-.5-.1-.9-.1-1.3.3-.4.5-.9.4-1.4.3-.6-.1-1-.4-1.5-.7-.4-.2-.7-.2-.9 0v8.6c.9-.1 1.3.2 1.7 1 .4.7.9.8 1.3.3.5-.7.9-.6 1.6-.3 1 .4 1.3.2 1.1-.9-.1-.3-.3-.7.1-.9.4-.3.8-.2 1.2.1 1.1 1 2.2 2 2.1 3.7 0 .6.1 1.2.1 1.8.1 1.2 0 1.2-1.1.8-.1 0-.2-.1-.4-.1-.1 0-.2 0-.2.1v.2c.1.1.2.3.4.3 1.2.7 1.4 1.7 1.2 3-.4 3.3-.7 6.7-1.1 10.1 0 .6-.1 1.2-.4 1.8-.2.3-.5.5-.6 0-.3-.8-.8-.7-1.3-.5-.2.1-.3.2-.5.2-.6.2-1.1 0-1.4-.5-.1-.2-.1-.4-.2-.6-.2-.5-.6-.5-.9-.1-.1.2-.2.5-.3.7-.4 1-.6 1.1-1.4.3-.5-.4-.7-.6-1-.5v2.3h76.4v-2.3c-1.8.2-3.7.6-3.7.6-.9 0-1.8.2-2.6 0-.3 0-.5-.1-.7-.1 0 .5.1.9.3 1.1l-2.7.3c.1-.3.1-.7.1-1.1v.1c.1-.1.2-.1.3-.2.7-.6.8-.6 1.5.1.1.1.3.2.4.3-.1-1.1.1-2.7.5-3.2s1-.8 1.5-1.1c.1-.1.3-.2.2-.3-.1-.1-.3-.1-.4-.1-.5 0-.9.4-1.4.5-.7.2-1 0-1-.7 0-.3 0-.6.1-.9.2-1.2 1.2-1.7 2.3-1.2.5.3 1 .6 1.6.7.7.1 1.3.2 1.8-.6.3-.6.9-.8 1.6-.6.1 0 .2 0 .3.1v-9c-.6.1-1-.3-1.1-1.1 0-.2-.1-.4 0-.6.6-1-.3-1.8-.4-2.8 0-.3-.3-.4-.6-.2-.7.4-1.2.4-1.7-.4-.3-.5-.7-.3-1.1.1-1.2 1.3-1.2 1.3-2.3-.1-.3-.4-.6-.9-.7-1.4-.2-.8-.5-.9-1.2-.5s-1.3.6-2.1.4c-.5-.1-.7.1-.8.6-.4 1.6-.5 1.7-2.2 1.8h-.4c-.6.1-.8.5-.5 1 .2.3.4.5.6.8.4.6.2 1.1-.5 1.3-.4.1-.8 0-1.2 0-.7.1-.8.3-.7 1 .2 1 0 1.2-1 .9-.4-.1-.7-.3-1.1-.5-.4-.2-.8-.2-1.1 0-.3.2-.6.4-.3.8.6.8.7 1.4 0 2.2-.4.5-.1.9.4 1.2.2.1.4.1.6.2 1.6.5 1.9 1.4.9 2.7l-.3.3c-.5.7-.5 1.1.4 1.4.6.2 1.1.6 1.4 1.1.8 1.2 2.4 1.2 3.2 0 .2-.2.3-.5.6-.6.3-.2.7-.2.8.1.2.8.8.9 1.4 1 .5.1.8.4.9 1 .1.6.5 2.4.6 4.1-.4.3-.9.3-1.3 0-.8-.5-1.6-.4-2.4 0-.6.2-1.2.4-1.7-.2-.2-.3-.4-.1-.6 0-.7.6-.7.6-1.6.1-.3-.2-.4-.2-.6.1-.1.2-.2.4-.4.5-1 .6-2.7.1-3.8-.3-.6-.2-.9-.1-1.4.2-.7.4-.9.4-1.4-.3-.4-.6-.7-.8-1.3-.4-.2.1-.5.2-.7.1-.5 0-.8.1-1.1.5-.7.8-1.2.7-1.5-.3-.5-1.5-.7-3-.6-4.5.1-1.3.2-2.6.1-3.8 0-1.9-.3-3.7 0-5.6.1-.4-.1-.8-.1-1.3-.3-2.4-1-4.7-1.5-7-.3-1.4 0-2.5 1-3.6 1-1 2.1-1.6 3.5-1.5.1 0 .8.1.8-.1 0-.1-.2-.1-.4-.1-.5-.1-1.6 0-1.3-.5.1-.3.8-.7 1.2-.9.3-.2.7-.4 1-.5.3-.1.5-.1.8-.3.1 0 .1-.2.1-.2 0-.1-.2-.1-.2-.1-.2.1-.5.1-.7.2-2 .8-3.8 2.1-5.6 3.3-.9.6-1.1.6-1.3-.5-.1-.2-.1-.4-.1-.6-.2-.9-.3-1.9-.6-2.7-.5-1.4-.3-2.6.6-3.8.5-.7 1-1.2 1.9-1 .3 0 .7 0 1-.1 2.1-.5 4.1-1 6.2-1.5.5-.1 1-.3 1.4-.6.1-.1.3-.2.2-.3-.1-.2-.3-.1-.4-.1-.8.3-1.6.5-2.5.7-.2 0-.4.1-.5-.1-.1-.2 0-.3 0-.5.1-.1.2-.2.2-.3.1-.1.2-.3.2-.4-.1-.1-.3 0-.3.1-.5.7-1.3 1.4-2.5 1.7-1 .3-2.5.7-3 .5-.9-.4-1.6-.1-2.2.6-.4.5-.8.4-.9-.2-.2-1.3-.2-2.6 1-3.7.9-.8 2-1.4 3-2.2.3-.3.7-.2 1.1 0 .8.4 1.6.9 2.4 1.1 1.6.4 3.2 0 4.5-1.2.3-.3.5-.7 1-.6.4.1.8.2 1.1.6.5.5.5.8-.2 1.1-.3.1-.8.1-.8.5s.5.6.8.7c.2.1.5.2.7.2.8.1 1.5 0 2.1.7.2.2.5.1.7.1.8-.4 1.6-.4 2.3-.4.5 0 1.1 0 1.5-.4.7-.7 1.6-.9 2.5-1.1.2 0 .4-.1.6-.2.4-.3.7-.9.5-1.5-.1-.6-.6-.5-1-.5h-.3c-.6-.1-1-.4-1-.9s.3-.9 1-.9c.7-.1 1.3.2 2 .5 1.1.5 1.7.4 2.4-.6.3-.5.8-.8 1.3-.9.8-.1 1.3-.6 1.8-1.2.4-.5.4-.7-.2-1-.4-.2-.6-.6-.7-1-.1-.4-.4-.7-.8-.5-.7.3-1 0-1.3-.5-.2-.3-.6-.5-.9-.6-.3-.1-.5-.4-.4-.7.1-.5.4-1 1-1.1.7-.1 1.5-.2 2.2 0 1.2.4 2.3.1 3.4-.3.2-.1.4-.2.7-.3v-2.8c-1.2-.6-1.5-1.5-.6-3 0-.4.2-.6.4-.8M8.1 56.6c0 .3 0 .6-.3.7-.4.1-.5-.3-.7-.5-.3-.3-.3-.7-.3-1.1 0-.8-.3-1-1.1-.8-.1 0-.2.1-.3.1-.5.1-.8-.2-1-.6-.2-.4.2-.6.5-.8.9-.5 1.8-.1 2.7.1.3 0 .3.4.3.6.1.7.2 1.2.2 1.7v.6m4.4-2.4c-.7.3-1.3.8-2 1.2-.5.3-.8.2-.8-.4v-.9c0-.3-.2-.9.2-1.1.7-.4 1.1-1.2 2-1.5.2-.1.4-.1.6.1.5.4.7.9.7 1.6 0 .3-.1.7-.7 1m-3.4-6.3v-.6c.2-.7.4-1.6 1.5-1.9.4-.1.6-.3.8-.6.2-.3.5-.5.8-.5.8-.1 1.2.2 1.1 1.1-.1 1.2-.9 1.8-1.9 2.1-.5.2-1.1.1-1.4.8-.1.2-.3.4-.5.4-.3-.3-.4-.6-.4-.8m31.7-19.7c-.3.9-.5.9-1.2.2-.3-.4-.7-.8-1-1.1-.4-.3-.6-.6-.4-1.2.2-.4-.1-.7-.5-.8-.4-.1-.8-.1-.9-.7 0-.3-.3-.4-.6-.3-.4.1-.7.3-1.1.3-.5.1-.7-.1-.9-.5-.1-.4.1-.6.4-.8.3-.2.7-.2 1.2-.1s1-.1 1.4-.6c.4-.5.9-.6 1.4-.1.3.3.7.4 1.1.5.9.1 1.4.6 1.4 1.5.2 1.2.1 2.5-.3 3.7m.7-8.6c-.3-.1-.5-.3-.7-.6-.3-.5-.7-.5-1.1-.1-.3.3-.7.4-1.1.4-.4 0-.7-.1-.8-.5-.1-.7-.5-1-1.1-1.3-.1-.1-.2-.1-.3-.2-.3-.2-.6-.4-.4-.8.2-.3.5-.3.8-.2.5.1.9.2 1.4.3.9.1 1.8.4 2.7-.3.2-.2.6-.2.9-.2.8-.1 1.1.1 1 .9-.2.8-.3 1.6-.6 2.4 0 .2-.4.3-.7.2m4.9 15c-.7.3-1.2.6-1 1.5.1.5-.4.7-.7 1-.4.2-.8.4-1.2.7-.3.2-.6.5-.9.2-.3-.2-.2-.5-.2-.9.2-1 .2-2 .6-3 .2-.5.5-.7 1-.8l1.5-.3c.4-.1.8-.1 1.1.2.7.5.7 1-.2 1.4m3.2-4.9c-.2.3-.5.3-.8.3-.3-.1-.6-.2-.9-.2-.5 0-1 0-.9.7 0 .5-.4.6-.7.8-.8.3-1.7.2-2.5.4-.4.1-.6-.3-.7-.7-.1-.3-.1-.7-.1-.9.2-1.6.1-3.2.3-4.7.3-1.7 1.1-2.2 2.6-1.7.3.1.5.2.8.4.4.2.4.6.2 1-.3.4-.7.6-1.1.9-.8.5-.8 1.2 0 1.8.5.4 1.1.4 1.7.5.7.1 1.3.2 1.9.8.2.1.4.3.2.6m4.2-11.2c-.7.4-1.5.4-2.2.2-.4-.1-.6.1-.5.5 0 .1.1.2.1.2.1 1-.4 1.5-1.3 1.1-.8-.3-1.5-.5-2.3-.1-.3.2-.6 0-.7-.5-.2-1.1-.2-1.1-1.4-.8-.2.1-.3.1-.5.2-.5.1-.8-.1-.9-.6 0-.3 0-.7-.1-1.2 0-.3.1-.7.1-1.1.1-.4.3-.7.7-.9.6-.3.9-.1 1.2.5.1.4-.1.9.5 1.1.5.1 1 .4 1.5 0 1-.8 2-.8 3.2-.2.6.4 1.4.1 2.1.1.4 0 1-.2 1.1.3.3.8-.2 1-.6 1.2"/><path id="XMLID_3_" class="st2" d="M66.9 78.4c-.1.1-.2.2-.3.2 0 .6 0 1.1-.1 1.5l2.7-.3c-.2-.2-.3-.6-.3-1.1-.1-.1-.3-.1-.4-.3-.8-.5-.9-.5-1.6 0"/></g></svg>