<svg version="1.1" id="Layer_1" xmlns="http://www.w3.org/2000/svg" x="0" y="0" viewBox="-487 489 48 48" xml:space="preserve"><style>.st1{fill:#b9821f}</style><path fill="none" d="M-487 489h48v48h-48z"/><path class="st1" d="M-448.8 504.9c-1.6 0-3 1.1-3.4 2.6h-4l1.3 3.5h2.6v16.1h-21.5V511h2.6l1.3-3.5h-4c-.4-1.5-1.7-2.6-3.4-2.6h-6v25.7h40.4v-25.7h-5.9zm-28.4 22.2h-2.5v-18.7h2.5v18.7zm30.9 0h-2.5v-18.7h2.5v18.7z"/><path class="st1" d="M-457 512.1l-1.3-3.5-1-2.6c1-1 1.6-2.3 1.6-3.7 0-2.3-1.5-4.3-3.6-5v-2.7h-3.4v2.7c-2.1.7-3.6 2.7-3.6 5 0 1.5.6 2.8 1.6 3.7l-1 2.6-1.3 3.5-2.5 7 .4 3.8 2.8-2.6 3-8.2 1.3-3.5.4-1.1c.2 0 .5.1.7.1.2 0 .4 0 .7-.1l.4 1.1 1.3 3.5 3 8.2 2.8 2.6.4-3.8-2.7-7zm-6-8c-1 0-1.9-.8-1.9-1.9 0-1 .8-1.9 1.9-1.9s1.9.8 1.9 1.9c0 1.1-.9 1.9-1.9 1.9z"/></svg>